<svg width="33" height="30" viewBox="0 0 33 30" fill="none" xmlns="http://www.w3.org/2000/svg">
<g id="Vector">
<path d="M16.7121 2.90264C18.8903 5.52039 20.2 8.88709 20.2 12.5631C20.2 13.9814 20.0047 15.3535 19.6401 16.6546C17.7225 16.3032 15.7378 16.2925 13.7824 16.6486C13.4189 15.3493 13.2241 13.9792 13.2241 12.563C13.2241 8.88703 14.5338 5.52032 16.712 2.90258L16.7121 2.90264ZM16.6734 17.5763C17.5464 17.5746 18.4152 17.6495 19.2703 17.7966C18.6708 19.4225 17.7997 20.9162 16.7121 22.2234C15.6239 20.9157 14.7526 19.4212 14.1531 17.7945C14.9909 17.6502 15.834 17.5779 16.6734 17.5763ZM12.9753 18.0466C13.6444 19.9172 14.6455 21.6302 15.9081 23.1148C13.1652 25.9261 9.33437 27.6708 5.09132 27.6708C4.22002 27.6708 3.36634 27.5963 2.53561 27.4551C3.71396 24.2606 5.97465 21.4437 9.15777 19.6059C10.3843 18.8978 11.6683 18.3815 12.9754 18.0467L12.9753 18.0466ZM20.4482 18.0483C24.252 19.019 27.6761 21.4634 29.7965 25.1357C30.2319 25.8899 30.5939 26.6659 30.8869 27.4554C30.0566 27.5965 29.2035 27.6708 28.3327 27.6708C24.0898 27.6708 20.259 25.926 17.5161 23.1149C18.7781 21.6307 19.7793 19.9183 20.4484 18.0483H20.4482ZM32.4312 28.3469L32.0695 27.2058C31.7438 26.2964 31.3329 25.4034 30.8329 24.5374C28.5605 20.6018 24.8893 17.9725 20.8081 16.9129C21.1911 15.5277 21.3968 14.0693 21.3968 12.563C21.3968 8.54034 19.9353 4.85621 17.5161 2.01127L16.7121 1.13232L15.9081 2.0112C13.4887 4.85615 12.0273 8.54028 12.0273 12.563C12.0273 14.0668 12.2324 15.523 12.6144 16.9062C11.2254 17.2669 9.86171 17.8174 8.55928 18.5694C5.07489 20.581 2.6148 23.6892 1.36071 27.2072L1 28.3488L2.16346 28.6044C3.11361 28.777 4.09196 28.8677 5.09145 28.8677C9.63857 28.8677 13.7532 27.0009 16.7121 23.9937C19.6709 27.0009 23.7856 28.8676 28.3327 28.8676C29.3327 28.8676 30.3115 28.7769 31.262 28.6041" fill="black"/>
<path d="M32.4312 28.3469L32.0695 27.2058C31.7438 26.2964 31.3329 25.4034 30.8329 24.5374C28.5605 20.6018 24.8893 17.9725 20.8081 16.9129C21.1911 15.5277 21.3968 14.0693 21.3968 12.563C21.3968 8.54034 19.9353 4.85621 17.5161 2.01127L16.7121 1.13232L15.9081 2.0112C13.4887 4.85615 12.0273 8.54028 12.0273 12.563C12.0273 14.0668 12.2324 15.523 12.6144 16.9062C11.2254 17.2669 9.86171 17.8174 8.55928 18.5694C5.07489 20.581 2.6148 23.6892 1.36071 27.2072L1 28.3488L2.16346 28.6044C3.11361 28.777 4.09196 28.8677 5.09145 28.8677C9.63857 28.8677 13.7532 27.0009 16.7121 23.9937C19.6709 27.0009 23.7856 28.8676 28.3327 28.8676C29.3327 28.8676 30.3115 28.7769 31.262 28.6041M16.7121 2.90264C18.8903 5.52039 20.2 8.88709 20.2 12.5631C20.2 13.9814 20.0047 15.3535 19.6401 16.6546C17.7225 16.3032 15.7378 16.2925 13.7824 16.6486C13.4189 15.3493 13.2241 13.9792 13.2241 12.563C13.2241 8.88703 14.5338 5.52032 16.712 2.90258L16.7121 2.90264ZM16.6734 17.5763C17.5464 17.5746 18.4152 17.6495 19.2703 17.7966C18.6708 19.4225 17.7997 20.9162 16.7121 22.2234C15.6239 20.9157 14.7526 19.4212 14.1531 17.7945C14.9909 17.6502 15.834 17.5779 16.6734 17.5763ZM12.9753 18.0466C13.6444 19.9172 14.6455 21.6302 15.9081 23.1148C13.1652 25.9261 9.33437 27.6708 5.09132 27.6708C4.22002 27.6708 3.36634 27.5963 2.53561 27.4551C3.71396 24.2606 5.97465 21.4437 9.15777 19.6059C10.3843 18.8978 11.6683 18.3815 12.9754 18.0467L12.9753 18.0466ZM20.4482 18.0483C24.252 19.019 27.6761 21.4634 29.7965 25.1357C30.2319 25.8899 30.5939 26.6659 30.8869 27.4554C30.0566 27.5965 29.2035 27.6708 28.3327 27.6708C24.0898 27.6708 20.259 25.926 17.5161 23.1149C18.7781 21.6307 19.7793 19.9183 20.4484 18.0483H20.4482Z" stroke="black" stroke-width="0.5"/>
</g>
</svg>
