<svg width="49" height="43" viewBox="0 0 49 43" fill="none" xmlns="http://www.w3.org/2000/svg">
<path d="M24.5681 3.65548C27.8355 7.5821 29.8 12.6322 29.8 18.1462C29.8 20.2736 29.507 22.3317 28.9602 24.2834C26.0838 23.7563 23.1067 23.7403 20.1736 24.2744C19.6284 22.3255 19.3361 20.2703 19.3361 18.1461C19.3361 12.6321 21.3007 7.582 24.568 3.65538L24.5681 3.65548ZM24.5101 25.666C25.8196 25.6634 27.1228 25.7757 28.4055 25.9964C27.5061 28.4353 26.1996 30.6759 24.5681 32.6367C22.9359 30.6751 21.6289 28.4334 20.7296 25.9932C21.9863 25.7768 23.251 25.6684 24.5101 25.666ZM18.9629 26.3714C19.9666 29.1773 21.4683 31.7468 23.3621 33.9737C19.2478 38.1906 13.5016 40.8077 7.13698 40.8077C5.83003 40.8077 4.54952 40.696 3.30341 40.4842C5.07094 35.6924 8.46198 31.4671 13.2367 28.7104C15.0764 27.6482 17.0025 26.8738 18.9631 26.3715L18.9629 26.3714ZM30.1723 26.3739C35.878 27.8301 41.0141 31.4966 44.1947 37.0051C44.8478 38.1363 45.3909 39.3004 45.8304 40.4846C44.5849 40.6963 43.3053 40.8078 41.9991 40.8078C35.6347 40.8078 29.8885 38.1905 25.7742 33.9738C27.6672 31.7475 29.1689 29.1789 30.1726 26.3739H30.1723ZM48.1468 41.8219L47.6042 40.1102C47.1157 38.7461 46.4993 37.4066 45.7494 36.1076C42.3408 30.2042 36.834 26.2603 30.7122 24.6708C31.2866 22.593 31.5952 20.4054 31.5952 18.1461C31.5952 12.112 29.403 6.58583 25.7741 2.31841L24.5681 1L23.3621 2.31832C19.7331 6.58573 17.541 12.1119 17.541 18.1461C17.541 20.4017 17.8487 22.586 18.4216 24.6609C16.3382 25.2018 14.2926 26.0276 12.3389 27.1556C7.11234 30.173 3.4222 34.8353 1.54107 40.1123L1 41.8248L2.74519 42.2081C4.17042 42.467 5.63794 42.603 7.13718 42.603C13.9578 42.603 20.1298 39.8029 24.5681 35.2921C29.0064 39.8029 35.1783 42.6029 41.999 42.6029C43.4991 42.6029 44.9672 42.4669 46.393 42.2077" fill="white"/>
<path d="M48.1468 41.8219L47.6042 40.1102C47.1157 38.7461 46.4993 37.4066 45.7494 36.1076C42.3408 30.2042 36.834 26.2603 30.7122 24.6708C31.2866 22.593 31.5952 20.4054 31.5952 18.1461C31.5952 12.112 29.403 6.58583 25.7741 2.31841L24.5681 1L23.3621 2.31831C19.7331 6.58573 17.541 12.1119 17.541 18.1461C17.541 20.4017 17.8487 22.586 18.4216 24.6609C16.3382 25.2018 14.2926 26.0276 12.3389 27.1556C7.11234 30.173 3.4222 34.8353 1.54107 40.1123L1 41.8248L2.74519 42.2081C4.17042 42.467 5.63794 42.603 7.13718 42.603C13.9578 42.603 20.1298 39.8029 24.5681 35.2921C29.0064 39.8029 35.1783 42.6029 41.999 42.6029C43.4991 42.6029 44.9672 42.4669 46.393 42.2077M24.5681 3.65548C27.8355 7.5821 29.8 12.6322 29.8 18.1462C29.8 20.2736 29.507 22.3317 28.9602 24.2834C26.0838 23.7563 23.1067 23.7403 20.1736 24.2744C19.6284 22.3255 19.3361 20.2703 19.3361 18.1461C19.3361 12.6321 21.3007 7.582 24.568 3.65538L24.5681 3.65548ZM24.5101 25.666C25.8196 25.6634 27.1228 25.7757 28.4055 25.9964C27.5061 28.4353 26.1996 30.6759 24.5681 32.6367C22.9359 30.6751 21.6289 28.4334 20.7296 25.9932C21.9863 25.7768 23.251 25.6684 24.5101 25.666ZM18.9629 26.3714C19.9666 29.1773 21.4683 31.7468 23.3621 33.9737C19.2478 38.1906 13.5016 40.8077 7.13698 40.8077C5.83003 40.8077 4.54952 40.696 3.30341 40.4842C5.07094 35.6924 8.46198 31.4671 13.2367 28.7103C15.0764 27.6482 17.0025 26.8738 18.9631 26.3715L18.9629 26.3714ZM30.1723 26.3739C35.878 27.8301 41.0141 31.4966 44.1947 37.0051C44.8478 38.1363 45.3909 39.3004 45.8304 40.4846C44.5849 40.6963 43.3053 40.8078 41.9991 40.8078C35.6347 40.8078 29.8885 38.1905 25.7742 33.9738C27.6672 31.7475 29.1689 29.1789 30.1726 26.3739H30.1723Z" stroke="white" stroke-width="0.75"/>
</svg>
